<svg width="20" height="20" viewBox="0 0 20 20" fill="none" xmlns="http://www.w3.org/2000/svg">
<g id="icon/thumb up">
<path id="Vector" d="M7.50016 18.3332H15.0002C15.6918 18.3332 16.2835 17.9165 16.5335 17.3165L19.0502 11.4415C19.1252 11.2498 19.1668 11.0498 19.1668 10.8332V9.1665C19.1668 8.24984 18.4168 7.49984 17.5002 7.49984H12.2418L13.0335 3.6915L13.0585 3.42484C13.0585 3.08317 12.9168 2.7665 12.6918 2.5415L11.8085 1.6665L6.31683 7.15817C6.01683 7.45817 5.8335 7.87484 5.8335 8.33317V16.6665C5.8335 17.5832 6.5835 18.3332 7.50016 18.3332ZM7.50016 8.33317L11.1168 4.7165L10.0002 9.1665H17.5002V10.8332L15.0002 16.6665H7.50016V8.33317ZM0.833496 8.33317H4.16683V18.3332H0.833496V8.33317Z" fill="#1570EF"/>
</g>
</svg>
