<svg width="24" height="24" viewBox="0 0 24 24" fill="none" xmlns="http://www.w3.org/2000/svg">
<g id="Notification">
<g id="Vector">
<mask id="path-1-inside-1_1737_683" fill="white">
<path d="M18.9037 15.75L17.5162 13.9237C17.4919 13.8913 17.4787 13.8518 17.4787 13.8112V8.65499C17.495 7.21261 16.9564 5.81911 15.9745 4.76248C14.9925 3.70584 13.6422 3.06683 12.2025 2.97749C11.4513 2.93881 10.7001 3.05343 9.9947 3.31436C9.28926 3.57529 8.64431 3.97708 8.09912 4.49525C7.55394 5.01342 7.11992 5.63714 6.82351 6.32842C6.5271 7.0197 6.37448 7.76408 6.37497 8.51624V14.0025C6.37497 14.0431 6.36181 14.0825 6.33747 14.115L5.10747 15.75C4.88741 15.9916 4.74225 16.292 4.68962 16.6145C4.637 16.9371 4.67917 17.268 4.81102 17.567C4.94288 17.8661 5.15873 18.1204 5.43237 18.2991C5.706 18.4778 6.02565 18.5732 6.35247 18.5737H17.6475C17.9753 18.5754 18.2964 18.4816 18.5718 18.3037C18.8471 18.1259 19.0647 17.8717 19.1979 17.5722C19.3311 17.2727 19.3743 16.9409 19.322 16.6173C19.2698 16.2937 19.1244 15.9923 18.9037 15.75ZM18.1537 17.1C18.1113 17.2009 18.0398 17.2869 17.9483 17.347C17.8568 17.4071 17.7494 17.4386 17.64 17.4375H6.35247C6.24478 17.4355 6.13992 17.4026 6.05037 17.3428C5.96081 17.2829 5.89032 17.1986 5.84728 17.0999C5.80423 17.0012 5.79043 16.8921 5.80753 16.7858C5.82463 16.6795 5.8719 16.5803 5.94372 16.5L5.98497 16.4512L7.24872 14.7862C7.41386 14.5584 7.50189 14.2838 7.49997 14.0025V8.51624C7.49997 7.93486 7.61472 7.3592 7.83766 6.82226C8.0606 6.28533 8.38733 5.79768 8.79913 5.38728C9.21092 4.97688 9.69967 4.6518 10.2374 4.43068C10.775 4.20957 11.3511 4.09676 11.9325 4.09874H12.15C13.3012 4.17456 14.3792 4.68963 15.1616 5.53754C15.9439 6.38545 16.3706 7.50144 16.3537 8.65499V13.83C16.3537 14.1169 16.4472 14.396 16.62 14.625L18.0225 16.47L18.06 16.5112C18.1354 16.5909 18.1853 16.6913 18.2033 16.7995C18.2214 16.9078 18.2067 17.0189 18.1612 17.1187L18.1537 17.1ZM14.22 20.0287C13.9385 20.3442 13.5936 20.5967 13.2078 20.7695C12.822 20.9424 12.404 21.0317 11.9812 21.0317C11.5585 21.0317 11.1405 20.9424 10.7546 20.7695C10.3688 20.5967 10.0239 20.3442 9.74247 20.0287C9.65245 19.9165 9.60883 19.7741 9.62058 19.6308C9.63233 19.4874 9.69855 19.354 9.80564 19.258C9.91272 19.1619 10.0525 19.1106 10.1963 19.1144C10.3401 19.1183 10.477 19.1771 10.5787 19.2787C10.7546 19.4764 10.9704 19.6346 11.2118 19.7429C11.4532 19.8512 11.7148 19.9072 11.9793 19.9072C12.2439 19.9072 12.5055 19.8512 12.7469 19.7429C12.9883 19.6346 13.2041 19.4764 13.38 19.2787C13.4817 19.1771 13.6186 19.1183 13.7624 19.1144C13.9062 19.1106 14.046 19.1619 14.1531 19.258C14.2601 19.354 14.3264 19.4874 14.3381 19.6308C14.3499 19.7741 14.3062 19.9165 14.2162 20.0287H14.22Z"/>
</mask>
<path d="M18.9037 15.75L17.5162 13.9237C17.4919 13.8913 17.4787 13.8518 17.4787 13.8112V8.65499C17.495 7.21261 16.9564 5.81911 15.9745 4.76248C14.9925 3.70584 13.6422 3.06683 12.2025 2.97749C11.4513 2.93881 10.7001 3.05343 9.9947 3.31436C9.28926 3.57529 8.64431 3.97708 8.09912 4.49525C7.55394 5.01342 7.11992 5.63714 6.82351 6.32842C6.5271 7.0197 6.37448 7.76408 6.37497 8.51624V14.0025C6.37497 14.0431 6.36181 14.0825 6.33747 14.115L5.10747 15.75C4.88741 15.9916 4.74225 16.292 4.68962 16.6145C4.637 16.9371 4.67917 17.268 4.81102 17.567C4.94288 17.8661 5.15873 18.1204 5.43237 18.2991C5.706 18.4778 6.02565 18.5732 6.35247 18.5737H17.6475C17.9753 18.5754 18.2964 18.4816 18.5718 18.3037C18.8471 18.1259 19.0647 17.8717 19.1979 17.5722C19.3311 17.2727 19.3743 16.9409 19.322 16.6173C19.2698 16.2937 19.1244 15.9923 18.9037 15.75ZM18.1537 17.1C18.1113 17.2009 18.0398 17.2869 17.9483 17.347C17.8568 17.4071 17.7494 17.4386 17.64 17.4375H6.35247C6.24478 17.4355 6.13992 17.4026 6.05037 17.3428C5.96081 17.2829 5.89032 17.1986 5.84728 17.0999C5.80423 17.0012 5.79043 16.8921 5.80753 16.7858C5.82463 16.6795 5.8719 16.5803 5.94372 16.5L5.98497 16.4512L7.24872 14.7862C7.41386 14.5584 7.50189 14.2838 7.49997 14.0025V8.51624C7.49997 7.93486 7.61472 7.3592 7.83766 6.82226C8.0606 6.28533 8.38733 5.79768 8.79913 5.38728C9.21092 4.97688 9.69967 4.6518 10.2374 4.43068C10.775 4.20957 11.3511 4.09676 11.9325 4.09874H12.15C13.3012 4.17456 14.3792 4.68963 15.1616 5.53754C15.9439 6.38545 16.3706 7.50144 16.3537 8.65499V13.83C16.3537 14.1169 16.4472 14.396 16.62 14.625L18.0225 16.47L18.06 16.5112C18.1354 16.5909 18.1853 16.6913 18.2033 16.7995C18.2214 16.9078 18.2067 17.0189 18.1612 17.1187L18.1537 17.1ZM14.22 20.0287C13.9385 20.3442 13.5936 20.5967 13.2078 20.7695C12.822 20.9424 12.404 21.0317 11.9812 21.0317C11.5585 21.0317 11.1405 20.9424 10.7546 20.7695C10.3688 20.5967 10.0239 20.3442 9.74247 20.0287C9.65245 19.9165 9.60883 19.7741 9.62058 19.6308C9.63233 19.4874 9.69855 19.354 9.80564 19.258C9.91272 19.1619 10.0525 19.1106 10.1963 19.1144C10.3401 19.1183 10.477 19.1771 10.5787 19.2787C10.7546 19.4764 10.9704 19.6346 11.2118 19.7429C11.4532 19.8512 11.7148 19.9072 11.9793 19.9072C12.2439 19.9072 12.5055 19.8512 12.7469 19.7429C12.9883 19.6346 13.2041 19.4764 13.38 19.2787C13.4817 19.1771 13.6186 19.1183 13.7624 19.1144C13.9062 19.1106 14.046 19.1619 14.1531 19.258C14.2601 19.354 14.3264 19.4874 14.3381 19.6308C14.3499 19.7741 14.3062 19.9165 14.2162 20.0287H14.22Z" fill="black"/>
<path d="M17.5162 13.9237L11.1162 18.7237L11.1311 18.7436L11.1462 18.7634L17.5162 13.9237ZM17.4787 8.65499L9.47923 8.56496L9.47872 8.60997V8.65499H17.4787ZM12.2025 2.97749L12.698 -5.00715L12.6559 -5.00976L12.6138 -5.01193L12.2025 2.97749ZM6.37497 8.51624L14.375 8.51624L14.375 8.51107L6.37497 8.51624ZM6.33747 14.115L12.7304 18.9244L12.7375 18.915L6.33747 14.115ZM5.10747 15.75L11.0222 21.1367L11.2748 20.8592L11.5004 20.5594L5.10747 15.75ZM6.35247 18.5737L6.33999 26.5737H6.35247V18.5737ZM17.6475 18.5737L17.6884 10.5738L17.6679 10.5737H17.6475V18.5737ZM18.9037 15.75L12.5337 20.5897L12.7492 20.8734L12.9891 21.1368L18.9037 15.75ZM18.1537 17.1L25.5816 14.129L18.3397 -3.97647L10.7794 13.9984L18.1537 17.1ZM17.64 17.4375L17.7215 9.4379L17.6807 9.43749H17.64V17.4375ZM6.35247 17.4375L6.20419 25.4361L6.27832 25.4375H6.35247V17.4375ZM5.94372 16.5L11.9053 21.8347L11.9792 21.7521L12.0508 21.6675L5.94372 16.5ZM5.98497 16.4512L12.0921 21.6187L12.2291 21.4568L12.3573 21.2879L5.98497 16.4512ZM7.24872 14.7862L13.6211 19.6229L13.6742 19.5529L13.7258 19.4817L7.24872 14.7862ZM7.49997 14.0025H-0.500029V14.0298L-0.499843 14.057L7.49997 14.0025ZM7.49997 8.51624L15.5 8.51624V8.51619L7.49997 8.51624ZM11.9325 4.09874L11.9053 12.0987L11.9189 12.0987H11.9325V4.09874ZM12.15 4.09874L12.6758 -3.88397L12.4132 -3.90126H12.15V4.09874ZM16.3537 8.65499L8.35458 8.53769L8.35372 8.59633V8.65499H16.3537ZM16.3537 13.83L24.3537 13.83V13.83H16.3537ZM16.62 14.625L10.2336 19.4431L10.2424 19.4547L10.2512 19.4663L16.62 14.625ZM18.0225 16.47L11.6537 21.3113L11.8664 21.5912L12.1029 21.8513L18.0225 16.47ZM18.06 16.5112L12.1404 21.8926L12.1944 21.952L12.2496 22.0103L18.06 16.5112ZM18.1612 17.1187L10.7334 20.0898L17.6822 37.4626L25.441 20.4361L18.1612 17.1187ZM14.22 20.0287L20.19 25.3541L32.0764 12.0287H14.22V20.0287ZM9.74247 20.0287L3.5027 25.0353L3.63342 25.1982L3.77247 25.3541L9.74247 20.0287ZM10.5787 19.2787L16.5547 13.9601L16.3985 13.7846L16.2323 13.6186L10.5787 19.2787ZM11.9793 19.9072V27.9072V19.9072ZM13.38 19.2787L7.72641 13.6186L7.56017 13.7846L7.40397 13.9601L13.38 19.2787ZM14.2162 20.0287L7.97645 15.0222L-2.45943 28.0287H14.2162V20.0287ZM25.2738 10.9103L23.8863 9.08407L11.1462 18.7634L12.5337 20.5897L25.2738 10.9103ZM23.9162 9.12374C24.9305 10.4761 25.4787 12.1209 25.4787 13.8112H9.47872C9.47872 15.5827 10.0533 17.3065 11.1162 18.7237L23.9162 9.12374ZM25.4787 13.8112V8.65499H9.47872V13.8112H25.4787ZM25.4782 8.74501C25.5175 5.25125 24.2132 1.8759 21.8346 -0.683504L10.1143 10.2085C9.69974 9.76233 9.47237 9.17396 9.47923 8.56496L25.4782 8.74501ZM21.8346 -0.683504C19.4561 -3.24291 16.1852 -4.79075 12.698 -5.00715L11.707 10.9621C11.0991 10.9244 10.529 10.6546 10.1143 10.2085L21.8346 -0.683504ZM12.6138 -5.01193C10.7785 -5.10643 8.94307 -4.82638 7.2194 -4.18882L12.77 10.8175C12.4572 10.9332 12.1242 10.9841 11.7911 10.9669L12.6138 -5.01193ZM7.2194 -4.18882C5.49573 -3.55126 3.91986 -2.56954 2.58776 -1.30344L13.6105 10.2939C13.3688 10.5237 13.0828 10.7018 12.77 10.8175L7.2194 -4.18882ZM2.58776 -1.30344C1.25565 -0.0373414 0.195182 1.48665 -0.529073 3.17572L14.1761 9.48113C14.0447 9.78763 13.8522 10.0642 13.6105 10.2939L2.58776 -1.30344ZM-0.529073 3.17572C-1.25333 4.86479 -1.62622 6.6836 -1.62503 8.52141L14.375 8.51107C14.3752 8.84456 14.3075 9.17462 14.1761 9.48113L-0.529073 3.17572ZM-1.62503 8.51624V14.0025H14.375V8.51624H-1.62503ZM-1.62503 14.0025C-1.62503 12.3121 -1.07675 10.6673 -0.0625291 9.31499L12.7375 18.915C13.8004 17.4978 14.375 15.774 14.375 14.0025H-1.62503ZM-0.0554857 9.30561L-1.28549 10.9406L11.5004 20.5594L12.7304 18.9244L-0.0554857 9.30561ZM-0.807233 10.3633C-2.07056 11.7505 -2.90388 13.4746 -3.20599 15.3264L12.5852 17.9027C12.3884 19.1093 11.8454 20.2328 11.0222 21.1367L-0.807233 10.3633ZM-3.20599 15.3264C-3.50809 17.1781 -3.26598 19.0777 -2.50906 20.7945L12.1311 14.3396C12.6243 15.4582 12.7821 16.6961 12.5852 17.9027L-3.20599 15.3264ZM-2.50906 20.7945C-1.75214 22.5112 -0.512979 23.9712 1.0579 24.9972L9.80683 11.601C10.8304 12.2696 11.6379 13.2209 12.1311 14.3396L-2.50906 20.7945ZM1.0579 24.9972C2.62879 26.0231 4.46379 26.5708 6.33999 26.5737L6.36495 10.5737C7.5875 10.5757 8.78321 10.9325 9.80683 11.601L1.0579 24.9972ZM6.35247 26.5737H17.6475V10.5737H6.35247V26.5737ZM17.6065 26.5736C19.4882 26.5833 21.332 26.0447 22.9127 25.0236L14.2309 11.5839C15.2608 10.9185 16.4623 10.5676 17.6884 10.5738L17.6065 26.5736ZM22.9127 25.0236C24.4933 24.0026 25.7423 22.5433 26.5072 20.824L11.8886 14.3204C12.387 13.2001 13.2009 12.2492 14.2309 11.5839L22.9127 25.0236ZM26.5072 20.824C27.2721 19.1047 27.5197 17.1999 27.2198 15.3422L11.4243 17.8924C11.2289 16.6819 11.3902 15.4407 11.8886 14.3204L26.5072 20.824ZM27.2198 15.3422C26.9199 13.4845 26.0854 11.7544 24.8183 10.3632L12.9891 21.1368C12.1635 20.2302 11.6197 19.1029 11.4243 17.8924L27.2198 15.3422ZM10.7794 13.9984C11.3529 12.6349 12.3194 11.4729 13.5558 10.6607L22.3407 24.0333C23.7601 23.1008 24.8696 21.7669 25.528 20.2016L10.7794 13.9984ZM13.5558 10.6607C14.7922 9.8485 16.2423 9.42283 17.7215 9.4379L17.5585 25.4371C19.2565 25.4544 20.9214 24.9657 22.3407 24.0333L13.5558 10.6607ZM17.64 9.43749H6.35247V25.4375H17.64V9.43749ZM6.50076 9.43886C7.92471 9.46526 9.31112 9.89994 10.4952 10.6912L1.60552 23.9943C2.96873 24.9053 4.56485 25.4057 6.20419 25.4361L6.50076 9.43886ZM10.4952 10.6912C11.6793 11.4825 12.6114 12.5971 13.1806 13.9026L-1.48602 20.2972C-0.830722 21.8002 0.24231 23.0834 1.60552 23.9943L10.4952 10.6912ZM13.1806 13.9026C13.7498 15.2081 13.9322 16.6495 13.7061 18.0556L-2.09105 15.516C-2.3513 17.1348 -2.1413 18.7943 -1.48602 20.2972L13.1806 13.9026ZM13.7061 18.0556C13.48 19.4617 12.855 20.7734 11.9053 21.8347L-0.0178976 11.1653C-1.11124 12.3871 -1.8308 13.8972 -2.09105 15.516L13.7061 18.0556ZM12.0508 21.6675L12.0921 21.6187L-0.122149 11.2837L-0.163398 11.3325L12.0508 21.6675ZM12.3573 21.2879L13.6211 19.6229L0.876382 9.94957L-0.387368 11.6146L12.3573 21.2879ZM13.7258 19.4817C14.8918 17.8733 15.5133 15.9345 15.4998 13.9479L-0.499843 14.057C-0.50955 12.6332 -0.0640621 11.2436 0.771634 10.0908L13.7258 19.4817ZM15.5 14.0025V8.51624H-0.500029V14.0025H15.5ZM15.5 8.51619C15.5 8.98768 15.4069 9.45453 15.2261 9.88997L0.449214 3.75455C-0.177458 5.26387 -0.500039 6.88204 -0.500029 8.51628L15.5 8.51619ZM15.2261 9.88997C15.0453 10.3254 14.7803 10.7209 14.4464 11.0537L3.15187 -0.279157C1.99432 0.874468 1.07589 2.24524 0.449214 3.75455L15.2261 9.88997ZM14.4464 11.0537C14.1124 11.3865 13.7161 11.6502 13.28 11.8295L7.19471 -2.96812C5.68328 -2.34657 4.30941 -1.43278 3.15187 -0.279157L14.4464 11.0537ZM13.28 11.8295C12.8439 12.0088 12.3768 12.1003 11.9053 12.0987L11.9596 -3.90122C10.3254 -3.90677 8.70615 -3.58967 7.19471 -2.96812L13.28 11.8295ZM11.9325 12.0987H12.15V-3.90126H11.9325V12.0987ZM11.6242 12.0814C10.7288 12.0225 9.89029 11.6219 9.28182 10.9624L21.0413 0.112704C18.8682 -2.24261 15.8735 -3.67334 12.6758 -3.88397L11.6242 12.0814ZM9.28182 10.9624C8.67336 10.3029 8.34142 9.4349 8.35458 8.53769L24.3529 8.77228C24.3998 5.56797 23.2144 2.46801 21.0413 0.112704L9.28182 10.9624ZM8.35372 8.65499V13.83H24.3537V8.65499H8.35372ZM8.35372 13.8299C8.35371 15.8556 9.01363 17.8261 10.2336 19.4431L23.0063 9.80686C23.8807 10.9659 24.3537 12.3782 24.3537 13.83L8.35372 13.8299ZM10.2512 19.4663L11.6537 21.3113L24.3913 11.6287L22.9888 9.78366L10.2512 19.4663ZM12.1029 21.8513L12.1404 21.8926L23.9795 11.1299L23.942 11.0887L12.1029 21.8513ZM12.2496 22.0103C11.2305 20.9334 10.5559 19.5771 10.3122 18.1147L26.0945 15.4843C25.8147 13.8055 25.0403 12.2484 23.8704 11.0122L12.2496 22.0103ZM10.3122 18.1147C10.0685 16.6524 10.2667 15.1505 10.8814 13.8014L25.441 20.4361C26.1468 18.8873 26.3743 17.1631 26.0945 15.4843L10.3122 18.1147ZM25.5891 14.1477L25.5816 14.129L10.7259 20.071L10.7334 20.0898L25.5891 14.1477ZM8.24997 14.7034C8.719 14.1776 9.29388 13.7568 9.93692 13.4688L16.4787 28.0703C17.8934 27.4365 19.1581 26.5109 20.19 25.3541L8.24997 14.7034ZM9.93692 13.4688C10.5799 13.1807 11.2766 13.0317 11.9812 13.0317V29.0317C13.5314 29.0317 15.064 28.7041 16.4787 28.0703L9.93692 13.4688ZM11.9812 13.0317C12.6858 13.0317 13.3825 13.1807 14.0255 13.4688L7.48375 28.0703C8.89842 28.7041 10.4311 29.0317 11.9812 29.0317V13.0317ZM14.0255 13.4688C14.6686 13.7568 15.2434 14.1776 15.7125 14.7034L3.77247 25.3541C4.80435 26.5109 6.06909 27.4365 7.48375 28.0703L14.0255 13.4688ZM15.9822 15.0222C17.1725 16.5056 17.7492 18.3887 17.5939 20.2842L1.64731 18.9773C1.46847 21.1596 2.13243 23.3275 3.5027 25.0353L15.9822 15.0222ZM17.5939 20.2842C17.4385 22.1797 16.5629 23.9438 15.147 25.2136L4.46426 13.3023C2.83421 14.7642 1.82616 16.7951 1.64731 18.9773L17.5939 20.2842ZM15.147 25.2136C13.7312 26.4834 11.8826 27.1626 9.98139 27.1115L10.4112 11.1173C8.22243 11.0585 6.09428 11.8404 4.46426 13.3023L15.147 25.2136ZM9.98139 27.1115C8.08016 27.0604 6.27077 26.2829 4.92515 24.9389L16.2323 13.6186C14.6831 12.0712 12.6001 11.1761 10.4112 11.1173L9.98139 27.1115ZM4.60272 24.5973C5.52916 25.6383 6.66541 26.4714 7.93677 27.0418L14.4868 12.4439C15.2753 12.7978 15.9801 13.3145 16.5547 13.9601L4.60272 24.5973ZM7.93677 27.0418C9.20813 27.6123 10.5858 27.9072 11.9793 27.9072V11.9072C12.8437 11.9072 13.6982 12.0901 14.4868 12.4439L7.93677 27.0418ZM11.9793 27.9072C13.3729 27.9072 14.7506 27.6123 16.0219 27.0418L9.47192 12.4439C10.2605 12.0901 11.115 11.9072 11.9793 11.9072V27.9072ZM16.0219 27.0418C17.2933 26.4714 18.4295 25.6383 19.356 24.5973L7.40397 13.9601C7.9786 13.3145 8.68336 12.7978 9.47192 12.4439L16.0219 27.0418ZM19.0335 24.9389C17.6879 26.2829 15.8785 27.0604 13.9773 27.1115L13.5474 11.1173C11.3587 11.1761 9.27557 12.0712 7.72641 13.6186L19.0335 24.9389ZM13.9773 27.1115C12.0761 27.1626 10.2275 26.4834 8.81167 25.2136L19.4944 13.3023C17.8644 11.8404 15.7363 11.0585 13.5474 11.1173L13.9773 27.1115ZM8.81167 25.2136C7.39577 23.9437 6.52018 22.1797 6.36484 20.2842L22.3114 18.9773C22.1325 16.7951 21.1245 14.7643 19.4944 13.3023L8.81167 25.2136ZM6.36484 20.2842C6.20949 18.3887 6.78622 16.5056 7.97645 15.0222L20.456 25.0353C21.8263 23.3275 22.4902 21.1596 22.3114 18.9773L6.36484 20.2842ZM14.2162 28.0287H14.22V12.0287H14.2162V28.0287Z" fill="black" mask="url(#path-1-inside-1_1737_683)"/>
</g>
</g>
</svg>
