<svg width="49" height="48" viewBox="0 0 49 48" fill="none" xmlns="http://www.w3.org/2000/svg">
<path d="M47.1416 39.864C47.1464 43.5984 44.1224 46.632 40.388 46.6368C40.3832 46.6368 40.3736 46.6368 40.3688 46.6368H8.6504C4.8968 46.6368 1.8584 43.632 1.8584 39.864V8.1504C1.8584 4.4016 4.8968 1.3584 8.6504 1.3584H40.364C44.108 1.368 47.1368 4.4064 47.1368 8.1504V39.864" fill="#34A853"/>
<path d="M19.652 9.90234C14.6552 9.90234 10.5992 13.9583 10.5944 18.9599V28.8959C10.5944 33.8975 14.6504 37.9487 19.652 37.9487H29.4008C34.4024 37.9487 38.444 33.8975 38.444 28.8959V22.4735C38.444 21.4751 37.6424 20.6639 36.644 20.6639H35.084C34.1288 20.6639 33.3512 19.9199 33.284 18.9791L33.2744 18.9599C33.2744 13.9583 29.2184 9.90234 24.2168 9.90234H19.652ZM19.4312 17.2463H24.5624C25.5224 17.2463 26.3048 18.0239 26.3048 18.9887C26.3 19.9487 25.5224 20.7263 24.5624 20.7311H19.4312C18.4712 20.7263 17.6936 19.9487 17.6888 18.9887C17.6888 18.0287 18.4712 17.2463 19.4312 17.2463ZM19.4168 27.4463H29.708C30.6152 27.4463 31.3592 28.1759 31.3592 29.0879C31.3592 29.9999 30.6152 30.7439 29.708 30.7439H19.4168C18.5096 30.7439 17.7752 29.9999 17.7752 29.0879C17.7752 28.1759 18.5096 27.4463 19.4168 27.4463Z" fill="white"/>
</svg>
