<svg width="16" height="20" viewBox="0 0 16 20" fill="none" xmlns="http://www.w3.org/2000/svg">
<mask id="path-1-inside-1_3617_350" fill="white">
<path d="M14.9037 13.75L13.5162 11.9238C13.4919 11.8913 13.4787 11.8519 13.4787 11.8113V6.65505C13.495 5.21267 12.9564 3.81918 11.9745 2.76254C10.9925 1.70591 9.64217 1.06689 8.20247 0.977548C7.45131 0.938871 6.70014 1.05349 5.9947 1.31442C5.28926 1.57535 4.64431 1.97714 4.09912 2.49531C3.55394 3.01348 3.11992 3.6372 2.82351 4.32848C2.5271 5.01976 2.37448 5.76415 2.37497 6.5163V12.0025C2.37497 12.0431 2.36181 12.0826 2.33747 12.115L1.10747 13.75C0.887408 13.9917 0.742248 14.292 0.689623 14.6146C0.636998 14.9371 0.679173 15.268 0.811024 15.5671C0.942875 15.8661 1.15873 16.1205 1.43237 16.2992C1.706 16.4779 2.02565 16.5733 2.35247 16.5738H13.6475C13.9753 16.5755 14.2964 16.4817 14.5718 16.3038C14.8471 16.1259 15.0647 15.8717 15.1979 15.5722C15.3311 15.2728 15.3743 14.941 15.322 14.6174C15.2698 14.2938 15.1244 13.9924 14.9037 13.75ZM14.1537 15.1C14.1113 15.201 14.0398 15.2869 13.9483 15.3471C13.8568 15.4072 13.7494 15.4387 13.64 15.4375H2.35247C2.24478 15.4356 2.13992 15.4027 2.05037 15.3428C1.96081 15.283 1.89032 15.1987 1.84728 15.1C1.80423 15.0012 1.79043 14.8922 1.80753 14.7859C1.82463 14.6795 1.8719 14.5803 1.94372 14.5L1.98497 14.4513L3.24872 12.7863C3.41386 12.5585 3.50189 12.2839 3.49997 12.0025V6.5163C3.49997 5.93492 3.61472 5.35926 3.83766 4.82232C4.0606 4.28539 4.38733 3.79774 4.79913 3.38734C5.21092 2.97694 5.69967 2.65186 6.23736 2.43074C6.77505 2.20963 7.3511 2.09682 7.93247 2.0988H8.14997C9.30115 2.17462 10.3792 2.68969 11.1616 3.5376C11.9439 4.38551 12.3706 5.5015 12.3537 6.65505V11.83C12.3537 12.1169 12.4472 12.396 12.62 12.625L14.0225 14.47L14.06 14.5113C14.1354 14.591 14.1853 14.6914 14.2033 14.7996C14.2214 14.9078 14.2067 15.019 14.1612 15.1188L14.1537 15.1ZM10.22 18.0288C9.93855 18.3443 9.59362 18.5967 9.2078 18.7696C8.82199 18.9424 8.40399 19.0318 7.98122 19.0318C7.55845 19.0318 7.14046 18.9424 6.75464 18.7696C6.36882 18.5967 6.02389 18.3443 5.74247 18.0288C5.65245 17.9166 5.60883 17.7742 5.62058 17.6308C5.63233 17.4875 5.69855 17.3541 5.80564 17.258C5.91272 17.162 6.05253 17.1106 6.19632 17.1145C6.34011 17.1183 6.47695 17.1771 6.57872 17.2788C6.75462 17.4764 6.97037 17.6346 7.21177 17.7429C7.45317 17.8513 7.71476 17.9073 7.97935 17.9073C8.24393 17.9073 8.50552 17.8513 8.74692 17.7429C8.98832 17.6346 9.20407 17.4764 9.37997 17.2788C9.48174 17.1771 9.61859 17.1183 9.76237 17.1145C9.90616 17.1106 10.046 17.162 10.1531 17.258C10.2601 17.3541 10.3264 17.4875 10.3381 17.6308C10.3499 17.7742 10.3062 17.9166 10.2162 18.0288H10.22Z"/>
</mask>
<path d="M14.9037 13.75L13.5162 11.9238C13.4919 11.8913 13.4787 11.8519 13.4787 11.8113V6.65505C13.495 5.21267 12.9564 3.81918 11.9745 2.76254C10.9925 1.70591 9.64217 1.06689 8.20247 0.977548C7.45131 0.938871 6.70014 1.05349 5.9947 1.31442C5.28926 1.57535 4.64431 1.97714 4.09912 2.49531C3.55394 3.01348 3.11992 3.6372 2.82351 4.32848C2.5271 5.01976 2.37448 5.76415 2.37497 6.5163V12.0025C2.37497 12.0431 2.36181 12.0826 2.33747 12.115L1.10747 13.75C0.887408 13.9917 0.742248 14.292 0.689623 14.6146C0.636998 14.9371 0.679173 15.268 0.811024 15.5671C0.942875 15.8661 1.15873 16.1205 1.43237 16.2992C1.706 16.4779 2.02565 16.5733 2.35247 16.5738H13.6475C13.9753 16.5755 14.2964 16.4817 14.5718 16.3038C14.8471 16.1259 15.0647 15.8717 15.1979 15.5722C15.3311 15.2728 15.3743 14.941 15.322 14.6174C15.2698 14.2938 15.1244 13.9924 14.9037 13.75ZM14.1537 15.1C14.1113 15.201 14.0398 15.2869 13.9483 15.3471C13.8568 15.4072 13.7494 15.4387 13.64 15.4375H2.35247C2.24478 15.4356 2.13992 15.4027 2.05037 15.3428C1.96081 15.283 1.89032 15.1987 1.84728 15.1C1.80423 15.0012 1.79043 14.8922 1.80753 14.7859C1.82463 14.6795 1.8719 14.5803 1.94372 14.5L1.98497 14.4513L3.24872 12.7863C3.41386 12.5585 3.50189 12.2839 3.49997 12.0025V6.5163C3.49997 5.93492 3.61472 5.35926 3.83766 4.82232C4.0606 4.28539 4.38733 3.79774 4.79913 3.38734C5.21092 2.97694 5.69967 2.65186 6.23736 2.43074C6.77505 2.20963 7.3511 2.09682 7.93247 2.0988H8.14997C9.30115 2.17462 10.3792 2.68969 11.1616 3.5376C11.9439 4.38551 12.3706 5.5015 12.3537 6.65505V11.83C12.3537 12.1169 12.4472 12.396 12.62 12.625L14.0225 14.47L14.06 14.5113C14.1354 14.591 14.1853 14.6914 14.2033 14.7996C14.2214 14.9078 14.2067 15.019 14.1612 15.1188L14.1537 15.1ZM10.22 18.0288C9.93855 18.3443 9.59362 18.5967 9.2078 18.7696C8.82199 18.9424 8.40399 19.0318 7.98122 19.0318C7.55845 19.0318 7.14046 18.9424 6.75464 18.7696C6.36882 18.5967 6.02389 18.3443 5.74247 18.0288C5.65245 17.9166 5.60883 17.7742 5.62058 17.6308C5.63233 17.4875 5.69855 17.3541 5.80564 17.258C5.91272 17.162 6.05253 17.1106 6.19632 17.1145C6.34011 17.1183 6.47695 17.1771 6.57872 17.2788C6.75462 17.4764 6.97037 17.6346 7.21177 17.7429C7.45317 17.8513 7.71476 17.9073 7.97935 17.9073C8.24393 17.9073 8.50552 17.8513 8.74692 17.7429C8.98832 17.6346 9.20407 17.4764 9.37997 17.2788C9.48174 17.1771 9.61859 17.1183 9.76237 17.1145C9.90616 17.1106 10.046 17.162 10.1531 17.258C10.2601 17.3541 10.3264 17.4875 10.3381 17.6308C10.3499 17.7742 10.3062 17.9166 10.2162 18.0288H10.22Z" fill="black"/>
<path d="M13.5162 11.9238L7.11622 16.7238L7.13113 16.7437L7.14617 16.7635L13.5162 11.9238ZM13.4787 6.65505L5.47923 6.56502L5.47872 6.61003V6.65505H13.4787ZM8.20247 0.977548L8.69796 -7.00709L8.65591 -7.0097L8.61384 -7.01187L8.20247 0.977548ZM2.37497 6.5163L10.375 6.5163L10.375 6.51113L2.37497 6.5163ZM2.33747 12.115L8.73043 16.9244L8.73747 16.915L2.33747 12.115ZM1.10747 13.75L7.02217 19.1367L7.27484 18.8593L7.50043 18.5594L1.10747 13.75ZM2.35247 16.5738L2.33999 24.5738H2.35247V16.5738ZM13.6475 16.5738L13.6884 8.5739L13.6679 8.5738H13.6475V16.5738ZM14.9037 13.75L8.53367 18.5897L8.7492 18.8734L8.9891 19.1368L14.9037 13.75ZM14.1537 15.1L21.5816 12.129L14.3397 -5.97641L6.77945 11.9984L14.1537 15.1ZM13.64 15.4375L13.7215 7.43796L13.6807 7.43755H13.64V15.4375ZM2.35247 15.4375L2.20419 23.4362L2.27832 23.4375H2.35247V15.4375ZM1.94372 14.5L7.90534 19.8348L7.97925 19.7522L8.05084 19.6676L1.94372 14.5ZM1.98497 14.4513L8.09209 19.6188L8.22908 19.4569L8.35731 19.288L1.98497 14.4513ZM3.24872 12.7863L9.62106 17.623L9.67421 17.5529L9.72581 17.4818L3.24872 12.7863ZM3.49997 12.0025H-4.50003V12.0298L-4.49984 12.0571L3.49997 12.0025ZM3.49997 6.5163L11.5 6.5163V6.51625L3.49997 6.5163ZM7.93247 2.0988L7.90531 10.0988L7.91889 10.0988H7.93247V2.0988ZM8.14997 2.0988L8.67578 -5.8839L8.41316 -5.9012H8.14997V2.0988ZM12.3537 6.65505L4.35458 6.53775L4.35372 6.5964V6.65505H12.3537ZM12.3537 11.83L20.3537 11.8301V11.83H12.3537ZM12.62 12.625L6.23361 17.4432L6.24237 17.4548L6.25117 17.4664L12.62 12.625ZM14.0225 14.47L7.65367 19.3114L7.86642 19.5912L8.1029 19.8514L14.0225 14.47ZM14.06 14.5113L8.14039 19.8926L8.19439 19.952L8.24956 20.0103L14.06 14.5113ZM14.1612 15.1188L6.73337 18.0898L13.6822 35.4627L21.441 18.4361L14.1612 15.1188ZM10.22 18.0288L16.19 23.3541L28.0764 10.0288H10.22V18.0288ZM5.74247 18.0288L-0.497297 23.0353L-0.366575 23.1982L-0.227529 23.3541L5.74247 18.0288ZM6.57872 17.2788L12.5547 11.9602L12.3985 11.7847L12.2323 11.6187L6.57872 17.2788ZM7.97935 17.9073V25.9073V17.9073ZM9.37997 17.2788L3.72641 11.6187L3.56017 11.7847L3.40397 11.9602L9.37997 17.2788ZM10.2162 18.0288L3.97645 13.0223L-6.45943 26.0288H10.2162V18.0288ZM21.2738 8.91038L19.8863 7.08413L7.14617 16.7635L8.53367 18.5897L21.2738 8.91038ZM19.9162 7.1238C20.9305 8.47616 21.4787 10.121 21.4787 11.8113H5.47872C5.47872 13.5828 6.05326 15.3065 7.11622 16.7238L19.9162 7.1238ZM21.4787 11.8113V6.65505H5.47872V11.8113H21.4787ZM21.4782 6.74507C21.5175 3.25131 20.2132 -0.124038 17.8346 -2.68344L6.11435 8.20852C5.69974 7.76239 5.47237 7.17403 5.47923 6.56502L21.4782 6.74507ZM17.8346 -2.68344C15.4561 -5.24285 12.1852 -6.79069 8.69796 -7.00709L7.70698 8.96219C7.0991 8.92447 6.52895 8.65466 6.11435 8.20852L17.8346 -2.68344ZM8.61384 -7.01187C6.77847 -7.10637 4.94307 -6.82632 3.2194 -6.18876L8.77001 8.8176C8.45722 8.93329 8.12416 8.98411 7.7911 8.96696L8.61384 -7.01187ZM3.2194 -6.18876C1.49573 -5.5512 -0.0801392 -4.56948 -1.41224 -3.30338L9.61049 8.294C9.36876 8.52375 9.0828 8.7019 8.77001 8.8176L3.2194 -6.18876ZM-1.41224 -3.30338C-2.74435 -2.03728 -3.80482 -0.513293 -4.52907 1.17578L10.1761 7.48119C10.0447 7.78769 9.85223 8.06425 9.61049 8.294L-1.41224 -3.30338ZM-4.52907 1.17578C-5.25333 2.86485 -5.62622 4.68366 -5.62503 6.52147L10.375 6.51113C10.3752 6.84463 10.3075 7.17468 10.1761 7.48119L-4.52907 1.17578ZM-5.62503 6.5163V12.0025H10.375V6.5163H-5.62503ZM-5.62503 12.0025C-5.62503 10.3121 -5.07675 8.66734 -4.06253 7.31505L8.73747 16.915C9.80037 15.4978 10.375 13.7741 10.375 12.0025H-5.62503ZM-4.05549 7.30567L-5.28549 8.94067L7.50043 18.5594L8.73043 16.9244L-4.05549 7.30567ZM-4.80723 8.36337C-6.07056 9.75053 -6.90388 11.4747 -7.20599 13.3264L8.58523 15.9027C8.38838 17.1093 7.84537 18.2328 7.02217 19.1367L-4.80723 8.36337ZM-7.20599 13.3264C-7.50809 15.1782 -7.26598 17.0778 -6.50906 18.7945L8.13111 12.3396C8.62433 13.4583 8.78209 14.6961 8.58523 15.9027L-7.20599 13.3264ZM-6.50906 18.7945C-5.75214 20.5113 -4.51298 21.9713 -2.9421 22.9972L5.80683 9.60111C6.83044 10.2696 7.63789 11.221 8.13111 12.3396L-6.50906 18.7945ZM-2.9421 22.9972C-1.37121 24.0232 0.46379 24.5709 2.33999 24.5738L2.36495 8.57381C3.5875 8.57571 4.78321 8.93259 5.80683 9.60111L-2.9421 22.9972ZM2.35247 24.5738H13.6475V8.5738H2.35247V24.5738ZM13.6065 24.5737C15.4882 24.5833 17.332 24.0447 18.9127 23.0237L10.2309 9.58392C11.2608 8.91859 12.4623 8.56763 13.6884 8.5739L13.6065 24.5737ZM18.9127 23.0237C20.4933 22.0026 21.7423 20.5433 22.5072 18.8241L7.88862 12.3204C8.38703 11.2001 9.20093 10.2492 10.2309 9.58392L18.9127 23.0237ZM22.5072 18.8241C23.2721 17.1048 23.5197 15.2 23.2198 13.3423L7.4243 15.8924C7.22887 14.6819 7.39022 13.4407 7.88862 12.3204L22.5072 18.8241ZM23.2198 13.3423C22.9199 11.4846 22.0854 9.75449 20.8183 8.36328L8.9891 19.1368C8.16348 18.2303 7.61973 17.1029 7.4243 15.8924L23.2198 13.3423ZM6.77945 11.9984C7.35293 10.6349 8.31942 9.47299 9.55581 8.66077L18.3407 22.0333C19.7601 21.1009 20.8696 19.767 21.528 18.2017L6.77945 11.9984ZM9.55581 8.66077C10.7922 7.84856 12.2423 7.42289 13.7215 7.43796L13.5585 23.4371C15.2565 23.4544 16.9214 22.9658 18.3407 22.0333L9.55581 8.66077ZM13.64 7.43755H2.35247V23.4375H13.64V7.43755ZM2.50076 7.43892C3.92471 7.46532 5.31112 7.9 6.49521 8.69126L-2.39448 21.9944C-1.03127 22.9054 0.564847 23.4058 2.20419 23.4362L2.50076 7.43892ZM6.49521 8.69126C7.67932 9.48253 8.61137 10.5971 9.18057 11.9026L-5.48602 18.2973C-4.83072 19.8002 -3.75769 21.0834 -2.39448 21.9944L6.49521 8.69126ZM9.18057 11.9026C9.74975 13.2081 9.93217 14.6496 9.70611 16.0557L-6.09105 13.516C-6.3513 15.1348 -6.1413 16.7943 -5.48602 18.2973L9.18057 11.9026ZM9.70611 16.0557C9.48005 17.4618 8.85504 18.7735 7.90534 19.8348L-4.0179 9.16534C-5.11124 10.3872 -5.8308 11.8972 -6.09105 13.516L9.70611 16.0557ZM8.05084 19.6676L8.09209 19.6188L-4.12215 9.28379L-4.1634 9.33254L8.05084 19.6676ZM8.35731 19.288L9.62106 17.623L-3.12362 7.94964L-4.38737 9.61464L8.35731 19.288ZM9.72581 17.4818C10.8918 15.8734 11.5133 13.9345 11.4998 11.948L-4.49984 12.0571C-4.50955 10.6333 -4.06406 9.24363 -3.22837 8.09084L9.72581 17.4818ZM11.5 12.0025V6.5163H-4.50003V12.0025H11.5ZM11.5 6.51625C11.5 6.98774 11.4069 7.45459 11.2261 7.89003L-3.55079 1.75461C-4.17746 3.26393 -4.50004 4.8821 -4.50003 6.51634L11.5 6.51625ZM11.2261 7.89003C11.0453 8.32547 10.7803 8.72095 10.4464 9.05377L-0.848133 -2.2791C-2.00568 -1.12547 -2.92411 0.2453 -3.55079 1.75461L11.2261 7.89003ZM10.4464 9.05377C10.1124 9.3866 9.71606 9.65023 9.28 9.82955L3.19471 -4.96806C1.68328 -4.34651 0.309407 -3.43272 -0.848133 -2.2791L10.4464 9.05377ZM9.28 9.82955C8.84395 10.0089 8.37679 10.1004 7.90531 10.0988L7.95964 -5.90116C6.3254 -5.90671 4.70615 -5.58961 3.19471 -4.96806L9.28 9.82955ZM7.93247 10.0988H8.14997V-5.9012H7.93247V10.0988ZM7.62416 10.0815C6.7288 10.0225 5.89029 9.62192 5.28182 8.96243L17.0413 -1.88724C14.8682 -4.24254 11.8735 -5.67328 8.67578 -5.8839L7.62416 10.0815ZM5.28182 8.96243C4.67336 8.30295 4.34142 7.43496 4.35458 6.53775L20.3529 6.77235C20.3998 3.56803 19.2144 0.468071 17.0413 -1.88724L5.28182 8.96243ZM4.35372 6.65505V11.83H20.3537V6.65505H4.35372ZM4.35372 11.83C4.35371 13.8556 5.01363 15.8261 6.23361 17.4432L19.0063 7.80692C19.8807 8.96593 20.3537 10.3783 20.3537 11.8301L4.35372 11.83ZM6.25117 17.4664L7.65367 19.3114L20.3913 9.62872L18.9888 7.78372L6.25117 17.4664ZM8.1029 19.8514L8.14039 19.8926L19.9795 9.12998L19.942 9.08873L8.1029 19.8514ZM8.24956 20.0103C7.23047 18.9335 6.55592 17.5771 6.3122 16.1148L22.0945 13.4844C21.8147 11.8056 21.0403 10.2485 19.8704 9.01228L8.24956 20.0103ZM6.3122 16.1148C6.06847 14.6524 6.26665 13.1506 6.88142 11.8015L21.441 18.4361C22.1468 16.8873 22.3743 15.1632 22.0945 13.4844L6.3122 16.1148ZM21.5891 12.1478L21.5816 12.129L6.72587 18.0711L6.73337 18.0898L21.5891 12.1478ZM4.24997 12.7035C4.719 12.1777 5.29388 11.7569 5.93692 11.4688L12.4787 26.0704C13.8934 25.4366 15.1581 24.5109 16.19 23.3541L4.24997 12.7035ZM5.93692 11.4688C6.57994 11.1807 7.2766 11.0318 7.98122 11.0318V27.0318C9.53138 27.0318 11.064 26.7042 12.4787 26.0704L5.93692 11.4688ZM7.98122 11.0318C8.68584 11.0318 9.3825 11.1807 10.0255 11.4688L3.48375 26.0704C4.89842 26.7042 6.43107 27.0318 7.98122 27.0318V11.0318ZM10.0255 11.4688C10.6686 11.7569 11.2434 12.1777 11.7125 12.7035L-0.227529 23.3541C0.804354 24.5109 2.06909 25.4366 3.48375 26.0704L10.0255 11.4688ZM11.9822 13.0223C13.1725 14.5057 13.7492 16.3887 13.5939 18.2843L-2.35269 16.9774C-2.53153 19.1597 -1.86757 21.3275 -0.497297 23.0353L11.9822 13.0223ZM13.5939 18.2843C13.4385 20.1798 12.5629 21.9438 11.147 23.2137L0.464257 11.3024C-1.16579 12.7643 -2.17384 14.7951 -2.35269 16.9774L13.5939 18.2843ZM11.147 23.2137C9.73116 24.4835 7.88262 25.1627 5.98139 25.1116L6.41125 9.11737C4.22243 9.05854 2.09428 9.84048 0.464257 11.3024L11.147 23.2137ZM5.98139 25.1116C4.08016 25.0605 2.27077 24.283 0.925154 22.9389L12.2323 11.6187C10.6831 10.0713 8.60005 9.17619 6.41125 9.11737L5.98139 25.1116ZM0.60272 22.5974C1.52916 23.6383 2.66541 24.4714 3.93677 25.0419L10.4868 10.444C11.2753 10.7978 11.9801 11.3145 12.5547 11.9602L0.60272 22.5974ZM3.93677 25.0419C5.20813 25.6123 6.58584 25.9073 7.97935 25.9073V9.90725C8.84368 9.90725 9.69821 10.0902 10.4868 10.444L3.93677 25.0419ZM7.97935 25.9073C9.37286 25.9073 10.7506 25.6123 12.0219 25.0419L5.47192 10.444C6.26048 10.0902 7.11501 9.90725 7.97935 9.90725V25.9073ZM12.0219 25.0419C13.2933 24.4714 14.4295 23.6383 15.356 22.5974L3.40397 11.9602C3.9786 11.3145 4.68336 10.7978 5.47192 10.444L12.0219 25.0419ZM15.0335 22.9389C13.6879 24.283 11.8785 25.0605 9.97731 25.1116L9.54745 9.11737C7.35865 9.17619 5.27557 10.0713 3.72641 11.6187L15.0335 22.9389ZM9.97731 25.1116C8.07607 25.1627 6.22753 24.4835 4.81167 23.2137L15.4944 11.3024C13.8644 9.84048 11.7363 9.05854 9.54745 9.11737L9.97731 25.1116ZM4.81167 23.2137C3.39577 21.9438 2.52018 20.1798 2.36484 18.2843L18.3114 16.9774C18.1325 14.7952 17.1245 12.7643 15.4944 11.3024L4.81167 23.2137ZM2.36484 18.2843C2.20949 16.3887 2.78622 14.5057 3.97645 13.0223L16.456 23.0353C17.8263 21.3275 18.4902 19.1597 18.3114 16.9774L2.36484 18.2843ZM10.2162 26.0288H10.22V10.0288H10.2162V26.0288Z" fill="black" mask="url(#path-1-inside-1_3617_350)"/>
</svg>
