<svg width="48" height="48" viewBox="0 0 48 48" fill="none" xmlns="http://www.w3.org/2000/svg">
<g id="Blogger-logo 1">
<g id="Group">
<path id="Vector" d="M46.6416 39.864C46.6464 43.5984 43.6224 46.632 39.888 46.6368C39.8832 46.6368 39.8736 46.6368 39.8688 46.6368H8.1504C4.3968 46.6368 1.3584 43.632 1.3584 39.864V8.1504C1.3584 4.4016 4.3968 1.3584 8.1504 1.3584H39.864C43.608 1.368 46.6368 4.4064 46.6368 8.1504V39.864" fill="#34A853"/>
<path id="Vector_2" d="M19.1521 9.9024C14.1553 9.9024 10.0993 13.9584 10.0945 18.96V28.896C10.0945 33.8976 14.1505 37.9488 19.1521 37.9488H28.9009C33.9025 37.9488 37.9441 33.8976 37.9441 28.896V22.4736C37.9441 21.4752 37.1425 20.664 36.1441 20.664H34.5841C33.6289 20.664 32.8513 19.92 32.7841 18.9792L32.7745 18.96C32.7745 13.9584 28.7185 9.9024 23.7169 9.9024H19.1521ZM18.9313 17.2464H24.0625C25.0225 17.2464 25.8049 18.024 25.8049 18.9888C25.8001 19.9488 25.0225 20.7264 24.0625 20.7312H18.9313C17.9713 20.7264 17.1937 19.9488 17.1889 18.9888C17.1889 18.0288 17.9713 17.2464 18.9313 17.2464ZM18.9169 27.4464H29.2081C30.1153 27.4464 30.8593 28.176 30.8593 29.088C30.8593 30 30.1153 30.744 29.2081 30.744H18.9169C18.0097 30.744 17.2753 30 17.2753 29.088C17.2753 28.176 18.0097 27.4464 18.9169 27.4464Z" fill="white"/>
</g>
</g>
</svg>
